<svg id="Livello_1" data-name="Livello 1" xmlns="http://www.w3.org/2000/svg" viewBox="0 0 95.64 89.86"><defs><style>.cls-1{fill:#ffa933;}.cls-2{fill:#fff;}.cls-3{fill:#e86b0c;}.cls-4{fill:#bf3e0a;}</style></defs><ellipse class="cls-1" cx="5.78" cy="62.35" rx="5.5" ry="11.92"/><ellipse class="cls-1" cx="90.14" cy="62.35" rx="5.5" ry="11.92"/><path class="cls-1" d="M72.83,41.11a23.81,23.81,0,0,0,5.39-15C78.22,11.7,64.88,0,48.42,0H47.5C31,0,17.7,11.7,17.7,26.13a23.81,23.81,0,0,0,5.39,15C11,45.88,3,54,3,63.27,3,78,23.15,89.86,48,89.86S92.89,78,92.89,63.27C92.89,54,84.92,45.88,72.83,41.11Zm-41.19-14a4.5,4.5,0,0,1-6.36.65,4.57,4.57,0,0,1-.55-6.42,4.49,4.49,0,0,1,6.36-.64A4.56,4.56,0,0,1,31.64,27.13Zm31.64,8.46C61.25,38,56.48,42.1,48,41c-8.52,1.12-13.29-3-15.32-5.39a1.43,1.43,0,0,1,.57-2.24c5-2,10.51-7.06,13.15-9.69a2.27,2.27,0,0,1,3.2,0c2.64,2.63,8.11,7.68,13.15,9.69A1.43,1.43,0,0,1,63.28,35.59Zm1-8.33a4.69,4.69,0,0,1,.52-6.52,4.44,4.44,0,0,1,6.36.65,4.71,4.71,0,0,1-.51,6.53A4.45,4.45,0,0,1,64.32,27.26Z"/><ellipse cx="28.18" cy="24.25" rx="4.57" ry="4.5" transform="translate(-6.53 37.57) rotate(-61.7)"/><ellipse class="cls-2" cx="28.22" cy="21.98" rx="0.83" ry="1" transform="translate(-6.84 29.06) rotate(-49.34)"/><path class="cls-3" d="M63.28,35.59a16,16,0,0,1-13.62,5.55,27.55,27.55,0,0,0-3.4,0,16,16,0,0,1-13.62-5.55,1.43,1.43,0,0,1,.57-2.24c5-2,10.51-7.06,13.15-9.69a2.27,2.27,0,0,1,3.2,0c2.64,2.63,8.11,7.68,13.15,9.69A1.43,1.43,0,0,1,63.28,35.59Z"/><path class="cls-4" d="M61.68,34.87c-4.45.81-12.8,1.81-13.72,1.81s-9.25-1-13.72-1.81c-.93-.17-1.32-.2-.51.3C39.19,38.52,48,39.51,48,39.51s8.77-1,14.23-4.34C63,34.67,62.61,34.7,61.68,34.87Z"/><path d="M70.69,27.92a4.45,4.45,0,0,1-6.37-.66,4.69,4.69,0,0,1,.52-6.52,4.44,4.44,0,0,1,6.36.65A4.71,4.71,0,0,1,70.69,27.92Z"/><path d="M70.69,27.92a4.45,4.45,0,0,1-6.37-.66,4.69,4.69,0,0,1,.52-6.52,4.44,4.44,0,0,1,6.36.65A4.71,4.71,0,0,1,70.69,27.92Z"/><ellipse class="cls-2" cx="67.72" cy="22.02" rx="1.01" ry="0.84" transform="translate(3.41 52.6) rotate(-43.45)"/></svg>