<svg id="Livello_1" data-name="Livello 1" xmlns="http://www.w3.org/2000/svg" viewBox="0 0 328.64 59.86"><defs><style>.cls-1{fill:#fff;}</style></defs><path class="cls-1" d="M0,59.1V1.89H21.35A31.45,31.45,0,0,1,33.76,4.15a25.45,25.45,0,0,1,8.91,6.12,25.55,25.55,0,0,1,5.4,9.07,33.61,33.61,0,0,1,1.81,11.08,32.72,32.72,0,0,1-2,11.8,25.33,25.33,0,0,1-5.76,9,25.84,25.84,0,0,1-9,5.8A32.1,32.1,0,0,1,21.35,59.1ZM36.42,30.42a22.26,22.26,0,0,0-1-6.89,15.56,15.56,0,0,0-3-5.36,12.8,12.8,0,0,0-4.75-3.47,16.11,16.11,0,0,0-6.37-1.21H13.22v34h8.13a15.35,15.35,0,0,0,6.45-1.29,12.92,12.92,0,0,0,4.71-3.59,16.36,16.36,0,0,0,2.91-5.39A22,22,0,0,0,36.42,30.42Z"/><path class="cls-1" d="M68.81,59.91a25.07,25.07,0,0,1-9.54-1.73,21.31,21.31,0,0,1-7.18-4.72,20.08,20.08,0,0,1-4.47-6.89,22.21,22.21,0,0,1-1.53-8.18,24.39,24.39,0,0,1,1.53-8.66,21.06,21.06,0,0,1,4.43-7.13,20.77,20.77,0,0,1,7.14-4.83A24.55,24.55,0,0,1,68.81,16a24.26,24.26,0,0,1,9.59,1.78,21.13,21.13,0,0,1,7.1,4.79,20.45,20.45,0,0,1,4.39,7,23.38,23.38,0,0,1,1.49,8.3c0,.75,0,1.49-.08,2.22s-.14,1.35-.24,1.89H59.79a8.69,8.69,0,0,0,3.1,6.49,9.92,9.92,0,0,0,6.33,2.21,11.53,11.53,0,0,0,5.44-1.37,7,7,0,0,0,3.5-3.7l11,3.06a19.72,19.72,0,0,1-7.73,8.14A24.09,24.09,0,0,1,68.81,59.91Zm9-25.95a9.7,9.7,0,0,0-2.9-6.36,8.75,8.75,0,0,0-6.21-2.34,8.59,8.59,0,0,0-6.24,2.38A9.84,9.84,0,0,0,59.55,34Z"/><path class="cls-1" d="M89,.28h12.89V44q0,4.84,4.11,4.84a9.06,9.06,0,0,0,2.14-.28,7.72,7.72,0,0,0,2.13-.85l1.7,9.67a25.39,25.39,0,0,1-5.56,1.77,29.45,29.45,0,0,1-5.89.65q-5.55,0-8.54-2.9t-3-8.38Z"/><path class="cls-1" d="M108.14,12V.28H121V12Zm0,47.14V16.8H121V59.1Z"/><path class="cls-1" d="M132.79,59.1l-15-42.3H131.1l9.27,32,9.35-32h12L146.81,59.1Z"/><path class="cls-1" d="M177.35,59.91a25.07,25.07,0,0,1-9.54-1.73,21.31,21.31,0,0,1-7.18-4.72,20.08,20.08,0,0,1-4.47-6.89,22.21,22.21,0,0,1-1.53-8.18,24.39,24.39,0,0,1,1.53-8.66,21.06,21.06,0,0,1,4.43-7.13,20.77,20.77,0,0,1,7.14-4.83A24.55,24.55,0,0,1,177.35,16a24.26,24.26,0,0,1,9.59,1.78,21.13,21.13,0,0,1,7.1,4.79,20.45,20.45,0,0,1,4.39,7,23.38,23.38,0,0,1,1.49,8.3c0,.75,0,1.49-.08,2.22s-.14,1.35-.24,1.89H168.33a8.69,8.69,0,0,0,3.1,6.49,9.92,9.92,0,0,0,6.33,2.21,11.53,11.53,0,0,0,5.44-1.37,7,7,0,0,0,3.5-3.7l11,3.06a19.72,19.72,0,0,1-7.73,8.14A24.09,24.09,0,0,1,177.35,59.91Zm9-25.95a9.7,9.7,0,0,0-2.9-6.36,8.75,8.75,0,0,0-6.21-2.34A8.59,8.59,0,0,0,171,27.64,9.84,9.84,0,0,0,168.09,34Z"/><path class="cls-1" d="M245.69,44.44a13,13,0,0,1-1.53,6.44A13.34,13.34,0,0,1,240,55.44a20,20,0,0,1-6.21,2.74,29.84,29.84,0,0,1-7.49.92H198.39V1.89h31.83a11.27,11.27,0,0,1,5.39,1.29,13.28,13.28,0,0,1,4.11,3.34,15.12,15.12,0,0,1,2.62,4.68,15.87,15.87,0,0,1,.93,5.36,15.53,15.53,0,0,1-2.05,7.73,13,13,0,0,1-6.17,5.48,14.84,14.84,0,0,1,7.78,5.16A15.16,15.16,0,0,1,245.69,44.44ZM211.6,13.17V25h13a5.79,5.79,0,0,0,3.86-1.45,5.63,5.63,0,0,0,1.7-4.52,6,6,0,0,0-1.5-4.35,4.8,4.8,0,0,0-3.58-1.53Zm20.63,28.61a6.84,6.84,0,0,0-1.53-4.51,4.8,4.8,0,0,0-3.87-1.86H211.6V47.9h14.67a5.78,5.78,0,0,0,4.27-1.69A6,6,0,0,0,232.23,41.78Z"/><path class="cls-1" d="M264.54,59.91a24.75,24.75,0,0,1-9.63-1.77,20.94,20.94,0,0,1-7.13-4.8,20.19,20.19,0,0,1-4.39-7,24.09,24.09,0,0,1,0-16.68,20.19,20.19,0,0,1,4.39-7,21.44,21.44,0,0,1,7.13-4.83A24.21,24.21,0,0,1,264.54,16a23.91,23.91,0,0,1,9.59,1.82,21.47,21.47,0,0,1,7.09,4.83,20.59,20.59,0,0,1,4.43,7A23.1,23.1,0,0,1,287.19,38a23.5,23.5,0,0,1-1.5,8.34,20,20,0,0,1-4.39,7,20.84,20.84,0,0,1-7.13,4.8A24.75,24.75,0,0,1,264.54,59.91ZM255.11,38a11.73,11.73,0,0,0,2.66,8,8.64,8.64,0,0,0,6.77,3,8.5,8.5,0,0,0,3.71-.81A8.69,8.69,0,0,0,271.19,46a10.86,10.86,0,0,0,2-3.51,13.18,13.18,0,0,0,.73-4.47,11.73,11.73,0,0,0-2.66-8,8.54,8.54,0,0,0-6.69-3,8.7,8.7,0,0,0-3.74.81,8.81,8.81,0,0,0-3,2.25,10.86,10.86,0,0,0-2,3.51A13.43,13.43,0,0,0,255.11,38Z"/><path class="cls-1" d="M305.64,59.91A24.75,24.75,0,0,1,296,58.14a20.84,20.84,0,0,1-7.13-4.8,20.21,20.21,0,0,1-4.4-7,24.09,24.09,0,0,1,0-16.68,20.21,20.21,0,0,1,4.4-7A21.34,21.34,0,0,1,296,17.81,24.21,24.21,0,0,1,305.64,16a24,24,0,0,1,9.59,1.82,21.58,21.58,0,0,1,7.09,4.83,20.74,20.74,0,0,1,4.43,7A23.09,23.09,0,0,1,328.28,38a23.72,23.72,0,0,1-1.49,8.34,20.34,20.34,0,0,1-4.39,7,20.94,20.94,0,0,1-7.13,4.8A24.75,24.75,0,0,1,305.64,59.91ZM296.21,38a11.73,11.73,0,0,0,2.66,8,8.63,8.63,0,0,0,6.77,3,8.43,8.43,0,0,0,3.7-.81,8.83,8.83,0,0,0,3-2.25,10.86,10.86,0,0,0,2-3.51A13.43,13.43,0,0,0,315,38a11.72,11.72,0,0,0-2.65-8,8.57,8.57,0,0,0-6.69-3A8.79,8.79,0,0,0,298.91,30a11.07,11.07,0,0,0-2,3.51A13.43,13.43,0,0,0,296.21,38Z"/></svg>