<svg id="Livello_1" data-name="Livello 1" xmlns="http://www.w3.org/2000/svg" viewBox="0 0 442.64 89.86"><defs><style>.cls-1{fill:#fcbf49;}.cls-2{fill:#fff;}.cls-3{fill:#f77f00;}.cls-4{fill:#d62828;}.cls-5{fill:#eae2b7;}</style></defs><ellipse class="cls-1" cx="352.78" cy="62.35" rx="5.5" ry="11.92"/><ellipse class="cls-1" cx="437.14" cy="62.35" rx="5.5" ry="11.92"/><path class="cls-1" d="M419.83,41.11a23.81,23.81,0,0,0,5.39-15C425.22,11.7,411.88,0,395.42,0h-.92C378,0,364.7,11.7,364.7,26.13a23.81,23.81,0,0,0,5.39,15C358,45.88,350,54,350,63.27,350,78,370.15,89.86,395,89.86S439.89,78,439.89,63.27C439.89,54,431.92,45.88,419.83,41.11Zm-41.19-14a4.5,4.5,0,0,1-6.36.65,4.57,4.57,0,0,1-.55-6.42,4.49,4.49,0,0,1,6.36-.64A4.56,4.56,0,0,1,378.64,27.13Zm31.64,8.46c-2,2.43-6.8,6.51-15.32,5.39-8.52,1.12-13.29-3-15.32-5.39a1.43,1.43,0,0,1,.57-2.24c5-2,10.51-7.06,13.15-9.69a2.27,2.27,0,0,1,3.2,0c2.64,2.63,8.11,7.68,13.15,9.69A1.43,1.43,0,0,1,410.28,35.59Zm1-8.33a4.69,4.69,0,0,1,.52-6.52,4.44,4.44,0,0,1,6.36.65,4.71,4.71,0,0,1-.51,6.53A4.45,4.45,0,0,1,411.32,27.26Z"/><ellipse cx="375.18" cy="24.25" rx="4.57" ry="4.5" transform="translate(175.98 343.1) rotate(-61.7)"/><ellipse class="cls-2" cx="375.22" cy="21.98" rx="0.83" ry="1" transform="translate(114.07 292.3) rotate(-49.34)"/><path class="cls-3" d="M410.28,35.59a16,16,0,0,1-13.62,5.55,27.55,27.55,0,0,0-3.4,0,16,16,0,0,1-13.62-5.55,1.43,1.43,0,0,1,.57-2.24c5-2,10.51-7.06,13.15-9.69a2.27,2.27,0,0,1,3.2,0c2.64,2.63,8.11,7.68,13.15,9.69A1.43,1.43,0,0,1,410.28,35.59Z"/><path class="cls-4" d="M408.68,34.87c-4.45.81-12.8,1.81-13.72,1.81s-9.25-1-13.72-1.81c-.93-.17-1.32-.2-.51.3,5.46,3.35,14.23,4.34,14.23,4.34s8.77-1,14.23-4.34C410,34.67,409.61,34.7,408.68,34.87Z"/><path d="M417.69,27.92a4.45,4.45,0,0,1-6.37-.66,4.69,4.69,0,0,1,.52-6.52,4.44,4.44,0,0,1,6.36.65A4.71,4.71,0,0,1,417.69,27.92Z"/><path d="M417.69,27.92a4.45,4.45,0,0,1-6.37-.66,4.69,4.69,0,0,1,.52-6.52,4.44,4.44,0,0,1,6.36.65A4.71,4.71,0,0,1,417.69,27.92Z"/><ellipse class="cls-2" cx="414.72" cy="22.02" rx="1.01" ry="0.84" transform="translate(98.49 291.24) rotate(-43.45)"/><path class="cls-5" d="M0,80.1V22.89H21.35a31.45,31.45,0,0,1,12.41,2.26,25.45,25.45,0,0,1,8.91,6.12,25.55,25.55,0,0,1,5.4,9.07,33.61,33.61,0,0,1,1.81,11.08,32.72,32.72,0,0,1-2,11.8,25.33,25.33,0,0,1-5.76,9,25.84,25.84,0,0,1-9,5.8,32.1,32.1,0,0,1-11.73,2ZM36.42,51.42a22.26,22.26,0,0,0-1-6.89,15.56,15.56,0,0,0-3-5.36,12.8,12.8,0,0,0-4.75-3.47,16.11,16.11,0,0,0-6.37-1.21H13.22v34h8.13a15.35,15.35,0,0,0,6.45-1.29,12.92,12.92,0,0,0,4.71-3.59,16.36,16.36,0,0,0,2.91-5.39A22,22,0,0,0,36.42,51.42Z"/><path class="cls-5" d="M68.81,80.91a25.07,25.07,0,0,1-9.54-1.73,21.31,21.31,0,0,1-7.18-4.72,20.08,20.08,0,0,1-4.47-6.89,22.21,22.21,0,0,1-1.53-8.18,24.39,24.39,0,0,1,1.53-8.66,21.06,21.06,0,0,1,4.43-7.13,20.77,20.77,0,0,1,7.14-4.83A24.55,24.55,0,0,1,68.81,37a24.26,24.26,0,0,1,9.59,1.78,21.13,21.13,0,0,1,7.1,4.79,20.45,20.45,0,0,1,4.39,7,23.38,23.38,0,0,1,1.49,8.3c0,.75,0,1.49-.08,2.22s-.14,1.35-.24,1.89H59.79a8.69,8.69,0,0,0,3.1,6.49,9.92,9.92,0,0,0,6.33,2.21,11.53,11.53,0,0,0,5.44-1.37,7,7,0,0,0,3.5-3.7l11,3.06a19.72,19.72,0,0,1-7.73,8.14A24.09,24.09,0,0,1,68.81,80.91Zm9-25.95a9.7,9.7,0,0,0-2.9-6.36,8.75,8.75,0,0,0-6.21-2.34,8.59,8.59,0,0,0-6.24,2.38A9.84,9.84,0,0,0,59.55,55Z"/><path class="cls-5" d="M89,21.28h12.89V65q0,4.84,4.11,4.84a9.06,9.06,0,0,0,2.14-.28,7.72,7.72,0,0,0,2.13-.85l1.7,9.67a25.39,25.39,0,0,1-5.56,1.77,29.45,29.45,0,0,1-5.89.65q-5.55,0-8.54-2.9t-3-8.38Z"/><path class="cls-5" d="M108.14,33V21.28H121V33Zm0,47.14V37.8H121V80.1Z"/><path class="cls-5" d="M132.79,80.1l-15-42.3H131.1l9.27,32,9.35-32h12L146.81,80.1Z"/><path class="cls-5" d="M177.35,80.91a25.07,25.07,0,0,1-9.54-1.73,21.31,21.31,0,0,1-7.18-4.72,20.08,20.08,0,0,1-4.47-6.89,22.21,22.21,0,0,1-1.53-8.18,24.39,24.39,0,0,1,1.53-8.66,21.06,21.06,0,0,1,4.43-7.13,20.77,20.77,0,0,1,7.14-4.83A24.55,24.55,0,0,1,177.35,37a24.26,24.26,0,0,1,9.59,1.78,21.13,21.13,0,0,1,7.1,4.79,20.45,20.45,0,0,1,4.39,7,23.38,23.38,0,0,1,1.49,8.3c0,.75,0,1.49-.08,2.22s-.14,1.35-.24,1.89H168.33a8.69,8.69,0,0,0,3.1,6.49,9.92,9.92,0,0,0,6.33,2.21,11.53,11.53,0,0,0,5.44-1.37,7,7,0,0,0,3.5-3.7l11,3.06a19.72,19.72,0,0,1-7.73,8.14A24.09,24.09,0,0,1,177.35,80.91Zm9-25.95a9.7,9.7,0,0,0-2.9-6.36,8.75,8.75,0,0,0-6.21-2.34A8.59,8.59,0,0,0,171,48.64,9.84,9.84,0,0,0,168.09,55Z"/><path class="cls-5" d="M245.69,65.44a13,13,0,0,1-1.53,6.44A13.34,13.34,0,0,1,240,76.44a20,20,0,0,1-6.21,2.74,29.84,29.84,0,0,1-7.49.92H198.39V22.89h31.83a11.27,11.27,0,0,1,5.39,1.29,13.28,13.28,0,0,1,4.11,3.34,15.12,15.12,0,0,1,2.62,4.68,15.87,15.87,0,0,1,.93,5.36,15.53,15.53,0,0,1-2.05,7.73,13,13,0,0,1-6.17,5.48,14.84,14.84,0,0,1,7.78,5.16A15.16,15.16,0,0,1,245.69,65.44ZM211.6,34.17V46h13a5.79,5.79,0,0,0,3.86-1.45,5.63,5.63,0,0,0,1.7-4.52,6,6,0,0,0-1.5-4.35,4.8,4.8,0,0,0-3.58-1.53Zm20.63,28.61a6.84,6.84,0,0,0-1.53-4.51,4.8,4.8,0,0,0-3.87-1.86H211.6V68.9h14.67a5.78,5.78,0,0,0,4.27-1.69A6,6,0,0,0,232.23,62.78Z"/><path class="cls-5" d="M264.54,80.91a24.75,24.75,0,0,1-9.63-1.77,20.94,20.94,0,0,1-7.13-4.8,20.19,20.19,0,0,1-4.39-7,24.09,24.09,0,0,1,0-16.68,20.19,20.19,0,0,1,4.39-7,21.44,21.44,0,0,1,7.13-4.83A24.21,24.21,0,0,1,264.54,37a23.91,23.91,0,0,1,9.59,1.82,21.47,21.47,0,0,1,7.09,4.83,20.59,20.59,0,0,1,4.43,7A23.1,23.1,0,0,1,287.19,59a23.5,23.5,0,0,1-1.5,8.34,20,20,0,0,1-4.39,7,20.84,20.84,0,0,1-7.13,4.8A24.75,24.75,0,0,1,264.54,80.91ZM255.11,59a11.73,11.73,0,0,0,2.66,8,8.64,8.64,0,0,0,6.77,3,8.5,8.5,0,0,0,3.71-.81A8.69,8.69,0,0,0,271.19,67a10.86,10.86,0,0,0,2-3.51,13.18,13.18,0,0,0,.73-4.47,11.73,11.73,0,0,0-2.66-8,8.54,8.54,0,0,0-6.69-3,8.7,8.7,0,0,0-3.74.81,8.81,8.81,0,0,0-3,2.25,10.86,10.86,0,0,0-2,3.51A13.43,13.43,0,0,0,255.11,59Z"/><path class="cls-5" d="M305.64,80.91A24.75,24.75,0,0,1,296,79.14a20.84,20.84,0,0,1-7.13-4.8,20.21,20.21,0,0,1-4.4-7,24.09,24.09,0,0,1,0-16.68,20.21,20.21,0,0,1,4.4-7A21.34,21.34,0,0,1,296,38.81,24.21,24.21,0,0,1,305.64,37a24,24,0,0,1,9.59,1.82,21.58,21.58,0,0,1,7.09,4.83,20.74,20.74,0,0,1,4.43,7A23.09,23.09,0,0,1,328.28,59a23.72,23.72,0,0,1-1.49,8.34,20.34,20.34,0,0,1-4.39,7,20.94,20.94,0,0,1-7.13,4.8A24.75,24.75,0,0,1,305.64,80.91ZM296.21,59a11.73,11.73,0,0,0,2.66,8,8.63,8.63,0,0,0,6.77,3,8.43,8.43,0,0,0,3.7-.81,8.83,8.83,0,0,0,3-2.25,10.86,10.86,0,0,0,2-3.51A13.43,13.43,0,0,0,315,59a11.72,11.72,0,0,0-2.65-8,8.57,8.57,0,0,0-6.69-3A8.79,8.79,0,0,0,298.91,51a11.07,11.07,0,0,0-2,3.51A13.43,13.43,0,0,0,296.21,59Z"/></svg>